HIERARCHY
ROOT Hips
{
	OFFSET 0.000000 0.000000 0.000000
	CHANNELS 6 Xposition Yposition Zposition Zrotation Yrotation Xrotation 
	JOINT LHipJoint
	{
		OFFSET 0.000000 0.000000 0.000000
		CHANNELS 3 Zrotation Yrotation Xrotation
		JOINT LeftUpLeg
		{
			OFFSET 1.363060 -1.794630 0.839290
			CHANNELS 3 Zrotation Yrotation Xrotation
			JOINT LeftLeg
			{
				OFFSET 2.448110 -6.726130 0.000000
				CHANNELS 3 Zrotation Yrotation Xrotation
				JOINT LeftFoot
				{
					OFFSET 2.562200 -7.039590 0.000000
					CHANNELS 3 Zrotation Yrotation Xrotation
					JOINT LeftToeBase
					{
						OFFSET 0.157640 -0.433110 2.322550
						CHANNELS 3 Zrotation Yrotation Xrotation
						End Site
						{
							OFFSET 0.000000 0.000000 0.000000
						}
					}
				}
			}
		}
	}
	JOINT RHipJoint
	{
		OFFSET 0.000000 0.000000 0.000000
		CHANNELS 3 Zrotation Yrotation Xrotation
		JOINT RightUpLeg
		{
			OFFSET -1.305520 -1.794630 0.839290
			CHANNELS 3 Zrotation Yrotation Xrotation
			JOINT RightLeg
			{
				OFFSET -2.542530 -6.985550 0.000000
				CHANNELS 3 Zrotation Yrotation Xrotation
				JOINT RightFoot
				{
					OFFSET -2.568260 -7.056230 0.000000
					CHANNELS 3 Zrotation Yrotation Xrotation
					JOINT RightToeBase
					{
						OFFSET -0.164730 -0.452590 2.363150
						CHANNELS 3 Zrotation Yrotation Xrotation
						End Site
						{
							OFFSET 0.000000 0.000000 0.000000
						}
					}
				}
			}
		}
	}
}
MOTION
Frames: 11
Frame Time: 0.008333
15.796634 16.898563 1.691910 83.662533 -87.858495 -36.953815 -8.761890 -0.266318 3.853387 -8.938738 -8.806710 -52.609298 -2.628380 -1.798133 11.593783 3.055588 12.403278 -9.657737 0.457000 0.000000 -41.850899 8.696088 0.350410 4.379032 3.606310 4.755694 -53.156028 2.646478 1.247343 11.933549 -2.959377 -8.949654 -10.954733 -0.594901 -0.000000 -57.911900
15.775617 16.839094 1.692487 87.008594 -87.707155 -39.287451 -8.695620 -0.288519 3.973915 -8.850296 -9.456920 -54.652704 -2.609284 -1.645527 13.594057 3.232809 12.560274 -10.881647 0.182000 0.000000 -41.986100 8.640230 0.380748 4.497068 3.279487 4.997922 -55.519168 2.645168 0.962361 14.383652 -3.055733 -8.724551 -12.296642 -0.340700 -0.000001 -57.653301
15.755032 16.770685 1.692837 90.184323 -87.545877 -41.435364 -8.626822 -0.301635 4.091330 -8.789390 -10.087263 -56.821460 -2.596282 -1.462183 15.801705 3.410611 12.652274 -12.228137 -0.134600 -0.000000 -42.132300 8.590679 0.417138 4.620164 2.921826 5.238652 -57.991460 2.635693 0.645956 17.023623 -3.154905 -8.483051 -13.738544 -0.070800 0.000001 -57.317900
15.734896 16.692449 1.692960 93.043518 -87.375965 -43.251061 -8.555055 -0.304661 4.209156 -8.747567 -10.708543 -59.114789 -2.585869 -1.247070 18.204925 3.588998 12.692048 -13.674609 -0.484100 0.000000 -42.274300 8.550921 0.461759 4.748826 2.534818 5.471694 -60.572980 2.615644 0.298099 19.844455 -3.255851 -8.231426 -15.259031 0.209100 -0.000000 -56.910700
15.715126 16.603671 1.692936 95.432329 -87.201628 -44.580553 -8.482193 -0.298021 4.331366 -8.712057 -11.326816 -61.528040 -2.573493 -0.999868 20.790533 3.767185 12.691342 -15.194133 -0.857000 -0.000001 -42.389401 8.523146 0.514326 4.884917 2.123446 5.693245 -63.254873 2.582244 -0.079132 22.827418 -3.358158 -7.980901 -16.830158 0.492700 0.000000 -56.436300
15.695398 16.503446 1.692828 97.264228 -87.024447 -45.333831 -8.409590 -0.283075 4.463607 -8.665920 -11.956787 -64.061463 -2.552661 -0.722026 23.542466 3.946228 12.670338 -16.757921 -1.244100 -0.000000 -42.447600 8.509260 0.575359 5.030179 1.689569 5.896772 -66.036892 2.532957 -0.483830 25.957697 -3.460769 -7.738916 -18.426086 0.774499 -0.000000 -55.899400
15.675769 16.391097 1.692705 98.488040 -86.845766 -45.459618 -8.339003 -0.262377 4.610824 -8.591348 -12.611074 -66.713954 -2.516274 -0.415971 26.445953 4.127307 12.649276 -18.338876 -1.637700 0.000001 -42.414600 8.510101 0.645091 5.186208 1.234868 6.076286 -68.916011 2.465149 -0.913274 29.219216 -3.562996 -7.513702 -20.023003 1.050700 0.000000 -55.300100
15.656123 16.265903 1.692657 99.100989 -86.666057 -44.954109 -8.272417 -0.239273 4.776940 -8.470898 -13.298885 -69.481939 -2.457358 -0.085392 29.486527 4.311471 12.646981 -19.913204 -2.033100 -0.000000 -42.255000 8.525802 0.723563 5.354158 0.760973 6.226466 -71.885044 2.376323 -1.363894 32.595593 -3.664306 -7.312643 -21.601618 1.318800 0.000000 -54.634200
15.636237 16.127507 1.692729 99.139202 -86.484614 -43.858866 -8.211466 -0.217812 4.963345 -8.291346 -14.023733 -72.354633 -2.370078 0.265124 32.649728 4.499178 12.678893 -21.462211 -2.427800 0.000000 -41.935100 8.555724 0.811173 5.534194 0.268587 6.342061 -74.929254 2.264038 -1.831211 36.068446 -3.764645 -7.143268 -23.148083 1.578500 -0.000000 -53.894000
15.616219 15.975708 1.693049 98.656756 -86.301202 -42.234287 -8.156563 -0.202625 5.168702 -8.041163 -14.785024 -75.321158 -2.249660 0.630684 35.925293 4.690692 12.757560 -22.974535 -2.822600 -0.000000 -41.428000 8.598708 0.909122 5.724738 -0.240076 6.419711 -78.031545 2.126329 -2.310757 39.622132 -3.864622 -7.012993 -24.656182 1.831500 -0.000000 -53.067700
15.595901 15.810905 1.693637 97.751325 -86.114432 -40.192247 -8.108092 -0.198239 5.388429 -7.718178 -15.572928 -78.353800 -2.094229 1.005618 39.296949 4.884847 12.889558 -24.443414 -3.219200 -0.000000 -40.717000 8.652958 1.018179 5.923259 -0.762627 6.456970 -81.159603 1.961515 -2.796481 43.234574 -3.965252 -6.929376 -26.124143 2.081101 0.000000 -52.148000
